# xmcd CD database file
#
# Track frame offsets:
#	150
#	18722
#	38460
#	65430
#	90547
#	118135
#	142500
#	166312
#	200235
#	218850
#
# Disc length: 3152 seconds
#
# Revision: 1
# Processed by: cddbd v1.5.1PL2 Copyright (c) Steve Scherf et al.
# Submitted via: CDex 1.51
#
DISCID=870c4e0a
DTITLE=Denise Lasalle - Smokin' In Bed
DYEAR=1997
DGENRE=R&B
TTITLE0=Smokin' In Bed
TTITLE1=Juke Joint Woman
TTITLE2=Blues Party Tonight
TTITLE3=If I Don't Holler
TTITLE4=Goin' Through Changes
TTITLE5=Five Below Zero
TTITLE6=Never Been Touched Like This
TTITLE7=Why Am I Missing You
TTITLE8=The Night We Called It A Day
TTITLE9=Dirty Old Woman
EXTD=YEAR: 1997
EXTT0=
EXTT1=
EXTT2=
EXTT3=
EXTT4=
EXTT5=
EXTT6=
EXTT7=
EXTT8=
EXTT9=
PLAYORDER=
